<svg id="visual" viewBox="0 0 900 600" width="900" height="600" xmlns="http://www.w3.org/2000/svg" xmlns:xlink="http://www.w3.org/1999/xlink" version="1.1"><rect x="0" y="0" width="900" height="600" fill="#FF6F61"></rect><path d="M0 92L12.5 77.8C25 63.7 50 35.3 75 30.3C100 25.3 125 43.7 150 57.8C175 72 200 82 225 73C250 64 275 36 300 24.5C325 13 350 18 375 26.3C400 34.7 425 46.3 450 53.7C475 61 500 64 525 71.5C550 79 575 91 600 80.8C625 70.7 650 38.3 675 38.7C700 39 725 72 750 87C775 102 800 99 825 93.7C850 88.3 875 80.7 887.5 76.8L900 73L900 0L887.5 0C875 0 850 0 825 0C800 0 775 0 750 0C725 0 700 0 675 0C650 0 625 0 600 0C575 0 550 0 525 0C500 0 475 0 450 0C425 0 400 0 375 0C350 0 325 0 300 0C275 0 250 0 225 0C200 0 175 0 150 0C125 0 100 0 75 0C50 0 25 0 12.5 0L0 0Z" fill="#ff005b" stroke-linecap="round" stroke-linejoin="miter"></path></svg>